<?xml version="1.0" encoding="UTF-8" standalone="no"?>
<!-- Created with Inkscape (http://www.inkscape.org/) -->

<svg
   version="1.1"
   id="svg1"
   width="413.74667"
   height="92.426666"
   viewBox="0 0 413.74667 92.426666"
   sodipodi:docname="University - HorizLeftLogo-OnOrange (RGB).eps"
   xmlns:inkscape="http://www.inkscape.org/namespaces/inkscape"
   xmlns:sodipodi="http://sodipodi.sourceforge.net/DTD/sodipodi-0.dtd"
   xmlns="http://www.w3.org/2000/svg"
   xmlns:svg="http://www.w3.org/2000/svg">
  <defs
     id="defs1" />
  <sodipodi:namedview
     id="namedview1"
     pagecolor="#ffffff"
     bordercolor="#000000"
     borderopacity="0.25"
     inkscape:showpageshadow="2"
     inkscape:pageopacity="0.0"
     inkscape:pagecheckerboard="0"
     inkscape:deskcolor="#d1d1d1">
    <inkscape:page
       x="0"
       y="0"
       inkscape:label="1"
       id="page1"
       width="413.74667"
       height="92.426666"
       margin="0"
       bleed="0" />
  </sodipodi:namedview>
  <g
     id="g1"
     inkscape:groupmode="layer"
     inkscape:label="1">
    <g
       id="group-R5">
      <path
         id="path2"
         d="m 2951.93,479.004 c 2.54,2.199 8.2,3.301 16.95,3.301 h 33.27 c 21.89,0 36.93,-1.059 45.13,-3.184 8.19,-2.121 13.63,-6.367 16.31,-12.734 1.69,-4.106 2.54,-8.418 2.54,-12.946 v -5.519 c 0,-4.387 1.37,-6.512 4.12,-6.367 2.45,0.136 4.03,1.23 4.76,3.273 0.72,2.043 1.44,7.16 2.16,15.336 l 0.85,12.477 c 0.71,9.308 1.27,14.945 1.7,16.922 0.42,1.972 0.63,3.593 0.63,4.867 0,4.086 -2.33,6.129 -7,6.129 -1.84,0 -4.67,-0.286 -8.49,-0.848 -1.84,-0.285 -6.93,-0.566 -15.28,-0.848 l -30.14,-1.484 c -13.3,-0.57 -28.59,-0.852 -45.85,-0.852 -28.44,0 -52.78,1.129 -73.02,3.399 -5.94,0.703 -10.68,1.058 -14.22,1.058 -6.36,0 -9.55,-1.937 -9.55,-5.816 0,-2.633 2.05,-3.945 6.16,-3.945 12.87,0 21.54,-3.512 26,-10.524 4.46,-7.019 6.69,-20.66 6.69,-40.922 V 260.148 l -0.22,-13.82 c 0,-17.008 -5.09,-26.93 -15.28,-29.758 l -8.07,-2.34 c -3.68,-0.968 -5.51,-2.628 -5.51,-4.992 0,-3.039 2.26,-4.558 6.79,-4.558 1.98,0 5.66,0.492 11.04,1.48 10.18,1.699 27.66,2.551 52.42,2.551 17.69,0 40.05,-1.27 67.07,-3.82 6.94,-0.563 12.46,-0.852 16.56,-0.852 18.96,0 34.67,7.621 47.12,22.84 10.33,12.691 15.5,23.621 15.5,32.793 0,3.805 -1.31,5.637 -3.92,5.5 -1.6,-0.145 -3.19,-1.418 -4.79,-3.82 -15.82,-25.051 -51.5,-37.571 -107.03,-37.571 -17.52,0 -28.44,1.489 -32.75,4.457 -4.31,2.981 -6.46,10.492 -6.46,22.543 v 78.246 l -0.21,7.016 c 0,4.254 1.16,7.086 3.49,8.508 2.33,1.414 6.96,2.125 13.88,2.125 h 46.81 c 12.14,0 20.75,-1.699 25.84,-5.094 5.08,-3.394 8.47,-9.836 10.17,-19.316 l 1.27,-5.942 c 0.57,-3.113 2.38,-4.672 5.42,-4.672 2.75,0 4.13,1.766 4.13,5.293 0,1.274 -0.15,3.317 -0.43,6.141 -0.85,8.469 -1.27,17.012 -1.27,25.617 0,11.293 0.63,23.785 1.89,37.481 0.15,2.113 0.23,3.668 0.23,4.656 0,3.668 -1.37,5.574 -4.12,5.715 -2.9,0.14 -4.71,-1.559 -5.43,-5.094 -1.84,-9.34 -3.89,-15.281 -6.16,-17.828 -2.26,-2.547 -7.21,-4.602 -14.85,-6.156 -8.64,-1.7 -20.38,-2.547 -35.24,-2.547 h -32.68 c -6.09,0 -9.74,0.672 -10.94,2.023 -1.2,1.348 -1.8,5.289 -1.8,11.824 v 85.633 c 0,7.528 1.27,12.391 3.81,14.594 z m -243.33,0 c 2.54,2.199 8.19,3.301 16.95,3.301 h 33.27 c 21.89,0 36.93,-1.059 45.12,-3.184 8.2,-2.121 13.63,-6.367 16.32,-12.734 1.69,-4.106 2.54,-8.418 2.54,-12.946 v -5.519 c 0,-4.387 1.37,-6.512 4.11,-6.367 2.46,0.136 4.04,1.23 4.76,3.273 0.73,2.043 1.45,7.16 2.17,15.336 l 0.85,12.477 c 0.7,9.308 1.27,14.945 1.7,16.922 0.42,1.972 0.63,3.593 0.63,4.867 0,4.086 -2.33,6.129 -7,6.129 -1.84,0 -4.67,-0.286 -8.49,-0.848 -1.84,-0.285 -6.94,-0.566 -15.28,-0.848 l -30.14,-1.484 c -13.31,-0.57 -28.59,-0.852 -45.85,-0.852 -28.44,0 -52.78,1.129 -73.02,3.399 -5.94,0.703 -10.68,1.058 -14.22,1.058 -6.37,0 -9.55,-1.937 -9.55,-5.816 0,-2.633 2.05,-3.945 6.16,-3.945 12.87,0 21.54,-3.512 26,-10.524 4.45,-7.019 6.68,-20.66 6.68,-40.922 V 260.148 l -0.21,-13.82 c 0,-17.008 -5.09,-26.93 -15.28,-29.758 l -8.07,-2.34 c -3.68,-0.968 -5.52,-2.628 -5.52,-4.992 0,-3.039 2.27,-4.558 6.8,-4.558 1.98,0 5.65,0.492 11.03,1.48 10.19,1.699 27.67,2.551 52.43,2.551 17.69,0 40.04,-1.27 67.07,-3.82 6.93,-0.563 12.45,-0.852 16.56,-0.852 18.96,0 34.67,7.621 47.12,22.84 10.33,12.691 15.49,23.621 15.49,32.793 0,3.805 -1.3,5.637 -3.91,5.5 -1.6,-0.145 -3.19,-1.418 -4.79,-3.82 -15.82,-25.051 -51.5,-37.571 -107.03,-37.571 -17.53,0 -28.44,1.489 -32.75,4.457 -4.31,2.981 -6.46,10.492 -6.46,22.543 v 78.246 l -0.21,7.016 c 0,4.254 1.16,7.086 3.49,8.508 2.33,1.414 6.96,2.125 13.87,2.125 h 46.82 c 12.14,0 20.75,-1.699 25.84,-5.094 5.08,-3.394 8.47,-9.836 10.16,-19.316 l 1.27,-5.942 c 0.58,-3.113 2.39,-4.672 5.43,-4.672 2.75,0 4.13,1.766 4.13,5.293 0,1.274 -0.15,3.317 -0.43,6.141 -0.85,8.469 -1.27,17.012 -1.27,25.617 0,11.293 0.62,23.785 1.88,37.481 0.16,2.113 0.24,3.668 0.24,4.656 0,3.668 -1.38,5.574 -4.13,5.715 -2.89,0.14 -4.7,-1.559 -5.42,-5.094 -1.84,-9.34 -3.9,-15.281 -6.16,-17.828 -2.26,-2.547 -7.21,-4.602 -14.86,-6.156 -8.63,-1.7 -20.37,-2.547 -35.23,-2.547 h -32.69 c -6.08,0 -9.73,0.672 -10.93,2.023 -1.2,1.348 -1.8,5.289 -1.8,11.824 v 85.633 c 0,7.528 1.27,12.391 3.81,14.594 z m -258.01,2.68 c -17.06,-14.422 -25.58,-33.09 -25.58,-55.993 0,-20.507 6.53,-37.191 19.61,-50.058 13.07,-12.867 35.29,-24.602 66.66,-35.207 30.38,-10.199 48.75,-18.059 55.11,-23.586 12.44,-10.766 18.66,-24.008 18.66,-39.727 0,-16.433 -6.74,-30.383 -20.22,-41.851 -13.48,-11.481 -29.95,-17.211 -49.42,-17.211 -19.2,0 -36.97,5.961 -53.34,17.879 -16.38,11.922 -27.1,26.679 -32.18,44.281 -2.02,6.812 -4.33,10.285 -6.92,10.43 -2.88,0.14 -4.33,-1.911 -4.33,-6.157 0,-5.379 1.84,-14.433 5.52,-27.164 3.25,-11.75 5.02,-18.191 5.31,-19.32 1.7,-7.93 2.97,-12.84 3.82,-14.75 0.85,-1.91 2.54,-3.711 5.09,-5.41 6.08,-4.11 15.67,-7.719 28.76,-10.828 13.09,-3.114 25.08,-4.672 35.98,-4.672 30.14,0 54.83,8.41 74.08,25.238 19.24,16.832 28.86,38.465 28.86,64.91 0,39.024 -26.14,67.09 -78.42,84.203 -26.85,8.922 -43.71,15.086 -50.56,18.489 -6.86,3.398 -13.18,8.781 -18.97,16.148 -6.64,8.641 -9.96,18.914 -9.96,30.813 0,13.457 5.11,24.679 15.33,33.675 10.23,8.993 22.96,13.497 38.2,13.497 19.18,0 36.57,-4.973 52.16,-14.911 15.59,-9.937 25.92,-22.574 31,-37.91 2.3,-6.816 4.61,-10.222 6.92,-10.222 3.02,0 4.54,2.195 4.54,6.582 0,1.128 -0.36,4.031 -1.06,8.703 l -3.4,21.859 c -1.84,11.887 -2.76,19.031 -2.76,21.441 0,7.075 -1.77,10.54 -5.3,10.399 -1.14,0 -1.91,-0.285 -2.34,-0.848 l -2.97,-2.547 c -1.7,-1.418 -3.4,-2.125 -5.09,-2.125 -1.28,0 -2.55,0.282 -3.82,0.852 l -14.65,6.152 c -10.47,4.387 -23.28,6.582 -38.42,6.582 -26.89,0 -48.85,-7.215 -65.9,-21.636 z m -228.6,0 c -17.05,-14.422 -25.58,-33.09 -25.58,-55.993 0,-20.507 6.54,-37.191 19.61,-50.058 13.07,-12.867 35.29,-24.602 66.67,-35.207 30.38,-10.199 48.75,-18.059 55.11,-23.586 12.43,-10.766 18.65,-24.008 18.65,-39.727 0,-16.433 -6.74,-30.383 -20.21,-41.851 -13.48,-11.481 -29.96,-17.211 -49.43,-17.211 -19.19,0 -36.97,5.961 -53.34,17.879 -16.37,11.922 -27.09,26.679 -32.18,44.281 -2.02,6.812 -4.32,10.285 -6.92,10.43 -2.88,0.14 -4.32,-1.911 -4.32,-6.157 0,-5.379 1.83,-14.433 5.51,-27.164 3.26,-11.75 5.02,-18.191 5.31,-19.32 1.7,-7.93 2.97,-12.84 3.82,-14.75 0.85,-1.91 2.55,-3.711 5.09,-5.41 6.09,-4.11 15.67,-7.719 28.77,-10.828 13.08,-3.114 25.07,-4.672 35.97,-4.672 30.14,0 54.83,8.41 74.08,25.238 19.24,16.832 28.87,38.465 28.87,64.91 0,39.024 -26.15,67.09 -78.43,84.203 -26.85,8.922 -43.71,15.086 -50.56,18.489 -6.85,3.398 -13.18,8.781 -18.97,16.148 -6.64,8.641 -9.96,18.914 -9.96,30.813 0,13.457 5.11,24.679 15.34,33.675 10.23,8.993 22.96,13.497 38.19,13.497 19.19,0 36.57,-4.973 52.16,-14.911 15.59,-9.937 25.92,-22.574 31,-37.91 2.31,-6.816 4.61,-10.222 6.92,-10.222 3.03,0 4.54,2.195 4.54,6.582 0,1.128 -0.35,4.031 -1.06,8.703 l -3.4,21.859 c -1.84,11.887 -2.75,19.031 -2.75,21.441 0,7.075 -1.78,10.54 -5.31,10.399 -1.14,0 -1.91,-0.285 -2.34,-0.848 l -2.97,-2.547 c -1.7,-1.418 -3.39,-2.125 -5.09,-2.125 -1.27,0 -2.55,0.282 -3.82,0.852 l -14.65,6.152 c -10.47,4.387 -23.28,6.582 -38.42,6.582 -26.88,0 -48.85,-7.215 -65.9,-21.636 z m -217.78,-2.68 c 2.54,2.199 8.19,3.301 16.95,3.301 h 33.26 c 21.89,0 36.94,-1.059 45.13,-3.184 8.19,-2.121 13.63,-6.367 16.31,-12.734 1.7,-4.106 2.55,-8.418 2.55,-12.946 v -5.519 c 0,-4.387 1.37,-6.512 4.11,-6.367 2.45,0.136 4.03,1.23 4.76,3.273 0.72,2.043 1.44,7.16 2.16,15.336 l 0.85,12.477 c 0.71,9.308 1.28,14.945 1.7,16.922 0.42,1.972 0.64,3.593 0.64,4.867 0,4.086 -2.34,6.129 -7.01,6.129 -1.84,0 -4.67,-0.286 -8.49,-0.848 -1.84,-0.285 -6.93,-0.566 -15.28,-0.848 l -30.14,-1.484 c -13.3,-0.57 -28.58,-0.852 -45.85,-0.852 -28.44,0 -52.78,1.129 -73.01,3.399 -5.95,0.703 -10.69,1.058 -14.22,1.058 -6.37,0 -9.56,-1.937 -9.56,-5.816 0,-2.633 2.05,-3.945 6.16,-3.945 12.87,0 21.54,-3.512 26,-10.524 4.46,-7.019 6.69,-20.66 6.69,-40.922 V 260.148 l -0.21,-13.82 c 0,-17.008 -5.1,-26.93 -15.29,-29.758 l -8.06,-2.34 c -3.68,-0.968 -5.52,-2.628 -5.52,-4.992 0,-3.039 2.26,-4.558 6.79,-4.558 1.98,0 5.66,0.492 11.04,1.48 10.19,1.699 27.66,2.551 52.42,2.551 17.69,0 40.05,-1.27 67.08,-3.82 6.93,-0.563 12.45,-0.852 16.55,-0.852 18.96,0 34.67,7.621 47.12,22.84 10.33,12.691 15.5,23.621 15.5,32.793 0,3.805 -1.31,5.637 -3.92,5.5 -1.59,-0.145 -3.19,-1.418 -4.78,-3.82 -15.83,-25.051 -51.51,-37.571 -107.04,-37.571 -17.52,0 -28.44,1.489 -32.74,4.457 -4.32,2.981 -6.47,10.492 -6.47,22.543 v 78.246 l -0.21,7.016 c 0,4.254 1.16,7.086 3.5,8.508 2.32,1.414 6.95,2.125 13.87,2.125 h 46.81 c 12.14,0 20.76,-1.699 25.84,-5.094 5.08,-3.394 8.47,-9.836 10.17,-19.316 l 1.27,-5.942 c 0.58,-3.113 2.39,-4.672 5.42,-4.672 2.75,0 4.13,1.766 4.13,5.293 0,1.274 -0.14,3.317 -0.43,6.141 -0.84,8.469 -1.27,17.012 -1.27,25.617 0,11.293 0.63,23.785 1.89,37.481 0.15,2.113 0.23,3.668 0.23,4.656 0,3.668 -1.37,5.574 -4.12,5.715 -2.9,0.14 -4.7,-1.559 -5.43,-5.094 -1.84,-9.34 -3.89,-15.281 -6.15,-17.828 -2.27,-2.547 -7.22,-4.602 -14.86,-6.156 -8.63,-1.7 -20.38,-2.547 -35.23,-2.547 h -32.69 c -6.09,0 -9.73,0.672 -10.93,2.023 -1.21,1.348 -1.81,5.289 -1.81,11.824 v 85.633 c 0,7.528 1.27,12.391 3.82,14.594 z m -116.2,-48.699 v 22.922 c 0,13.586 1.38,22.851 4.14,27.804 2.76,4.953 8.45,8.492 17.09,10.614 2.97,0.851 4.38,2.195 4.24,4.035 -0.28,2.968 -2.26,4.457 -5.94,4.457 -2.41,0 -5.88,-0.426 -10.4,-1.274 -5.24,-0.851 -12.24,-1.273 -21.02,-1.273 -16.41,0 -29.5,0.512 -39.26,1.543 -4.11,0.383 -7.08,0.578 -8.92,0.578 -4.1,0 -6.15,-1.313 -6.15,-3.941 0,-2.766 2.05,-4.497 6.15,-5.184 14.58,-2.41 24.66,-6.125 30.25,-11.145 5.59,-5.023 9.09,-13.55 10.51,-25.578 l 2.54,-48.816 -0.21,-28.656 V 271.324 c -0.14,-2.547 -0.92,-3.89 -2.33,-4.031 -0.85,-0.145 -2.84,1.555 -5.95,5.094 l -195.27,221.168 c -3.54,4.101 -7.08,6.156 -10.61,6.156 -1.85,0 -4.46,-0.074 -7.86,-0.211 l -3.39,-0.215 -14.23,0.426 -8.7,0.215 c -1.56,0.137 -2.69,0.211 -3.39,0.211 -3.12,0 -4.67,-1.313 -4.67,-3.938 0,-2.625 1.91,-4.215 5.73,-4.765 14.71,-1.985 25.96,-10.024 33.75,-24.11 7.78,-14.09 11.67,-33.386 11.67,-57.883 V 264.996 c 0,-15.297 -2.09,-26.375 -6.26,-33.246 -4.18,-6.871 -12.21,-12.352 -24.09,-16.461 -4.11,-1.379 -6.09,-3.109 -5.95,-5.187 0.29,-2.622 2.27,-3.942 5.95,-3.942 1.55,0 4.17,0.262 7.85,0.781 4.95,0.637 10.19,0.957 15.71,0.957 l 10.19,0.391 21.65,-1.07 c 10.75,-0.559 16.9,-0.981 18.46,-1.27 2.26,-0.277 4.39,-0.418 6.37,-0.418 2.97,0 4.46,1.379 4.46,4.149 0,3.039 -2.34,4.84 -7.01,5.398 -11.18,1.703 -18.68,4.32 -22.5,7.863 -3.82,3.539 -6.22,9.981 -7.21,19.329 l -0.64,15.089 0.21,8.926 v 144.059 c 0,6.371 1.35,9.558 4.04,9.558 1.13,0 2.12,-0.422 2.97,-1.273 l 2.12,-2.332 178.93,-204.617 4.67,-5.52 c 1.13,-1.129 2.76,-1.762 4.88,-1.91 3.26,-0.141 5.24,1.52 5.94,4.988 0.71,3.473 1.07,13.192 1.07,29.192 v 177.867 l 0.42,14.008 z m -307.87,0 v 22.922 c 0,13.586 1.38,22.851 4.14,27.804 2.76,4.953 8.46,8.492 17.09,10.614 2.97,0.851 4.38,2.195 4.24,4.035 -0.28,2.968 -2.26,4.457 -5.94,4.457 -2.41,0 -5.87,-0.426 -10.4,-1.274 -5.24,-0.851 -12.24,-1.273 -21.01,-1.273 -16.42,0 -29.51,0.512 -39.27,1.543 -4.11,0.383 -7.08,0.578 -8.92,0.578 -4.1,0 -6.15,-1.313 -6.15,-3.941 0,-2.766 2.05,-4.497 6.15,-5.184 14.58,-2.41 24.66,-6.125 30.25,-11.145 5.59,-5.023 9.09,-13.55 10.51,-25.578 l 2.54,-48.816 -0.21,-28.656 V 271.324 c -0.14,-2.547 -0.92,-3.89 -2.33,-4.031 -0.85,-0.145 -2.83,1.555 -5.95,5.094 l -195.27,221.168 c -3.54,4.101 -7.08,6.156 -10.61,6.156 -1.84,0 -4.46,-0.074 -7.86,-0.211 l -3.39,-0.215 -14.22,0.426 -8.71,0.215 c -1.55,0.137 -2.69,0.211 -3.39,0.211 -3.12,0 -4.67,-1.313 -4.67,-3.938 0,-2.625 1.91,-4.215 5.73,-4.765 14.71,-1.985 25.96,-10.024 33.75,-24.11 7.78,-14.09 11.67,-33.386 11.67,-57.883 V 264.996 c 0,-15.297 -2.09,-26.375 -6.26,-33.246 -4.18,-6.871 -12.2,-12.352 -24.09,-16.461 -4.11,-1.379 -6.09,-3.109 -5.94,-5.187 0.28,-2.622 2.26,-3.942 5.94,-3.942 1.55,0 4.17,0.262 7.85,0.781 4.95,0.637 10.19,0.957 15.71,0.957 l 10.19,0.391 21.65,-1.07 c 10.75,-0.559 16.91,-0.981 18.46,-1.27 2.27,-0.277 4.39,-0.418 6.37,-0.418 2.97,0 4.46,1.379 4.46,4.149 0,3.039 -2.34,4.84 -7.01,5.398 -11.18,1.703 -18.67,4.32 -22.49,7.863 -3.82,3.539 -6.23,9.981 -7.22,19.329 l -0.64,15.089 0.21,8.926 v 144.059 c 0,6.371 1.35,9.558 4.04,9.558 1.13,0 2.12,-0.422 2.97,-1.273 l 2.12,-2.332 178.93,-204.617 4.67,-5.52 c 1.13,-1.129 2.76,-1.762 4.88,-1.91 3.26,-0.141 5.24,1.52 5.95,4.988 0.7,3.473 1.06,13.192 1.06,29.192 v 177.867 l 0.42,14.008 z m -430.61,48.699 c 2.54,2.199 8.19,3.301 16.95,3.301 h 33.26 c 21.9,0 36.94,-1.059 45.13,-3.184 8.19,-2.121 13.63,-6.367 16.32,-12.734 1.69,-4.106 2.54,-8.418 2.54,-12.946 v -5.519 c 0,-4.387 1.37,-6.512 4.11,-6.367 2.45,0.136 4.04,1.23 4.76,3.273 0.72,2.043 1.44,7.16 2.17,15.336 l 0.85,12.477 c 0.7,9.308 1.27,14.945 1.69,16.922 0.43,1.972 0.64,3.593 0.64,4.867 0,4.086 -2.33,6.129 -7,6.129 -1.85,0 -4.67,-0.286 -8.49,-0.848 -1.85,-0.285 -6.94,-0.566 -15.29,-0.848 l -30.14,-1.484 c -13.3,-0.57 -28.58,-0.852 -45.84,-0.852 -28.45,0 -52.79,1.129 -73.02,3.399 -5.94,0.703 -10.69,1.058 -14.22,1.058 -6.37,0 -9.55,-1.937 -9.55,-5.816 0,-2.633 2.05,-3.945 6.15,-3.945 12.88,0 21.55,-3.512 26,-10.524 4.46,-7.019 6.69,-20.66 6.69,-40.922 V 260.148 l -0.21,-13.82 c 0,-17.008 -5.1,-26.93 -15.28,-29.758 l -8.07,-2.34 c -3.68,-0.968 -5.52,-2.628 -5.52,-4.992 0,-3.039 2.26,-4.558 6.79,-4.558 1.98,0 5.66,0.492 11.04,1.48 10.19,1.699 27.66,2.551 52.43,2.551 17.68,0 40.04,-1.27 67.07,-3.82 6.93,-0.563 12.45,-0.852 16.56,-0.852 18.96,0 34.66,7.621 47.12,22.84 10.32,12.691 15.49,23.621 15.49,32.793 0,3.805 -1.31,5.637 -3.92,5.5 -1.59,-0.145 -3.19,-1.418 -4.78,-3.82 -15.83,-25.051 -51.51,-37.571 -107.03,-37.571 -17.53,0 -28.44,1.489 -32.75,4.457 -4.31,2.981 -6.46,10.492 -6.46,22.543 v 78.246 l -0.22,7.016 c 0,4.254 1.17,7.086 3.5,8.508 2.33,1.414 6.95,2.125 13.87,2.125 h 46.81 c 12.14,0 20.76,-1.699 25.84,-5.094 5.08,-3.394 8.47,-9.836 10.17,-19.316 l 1.27,-5.942 c 0.58,-3.113 2.39,-4.672 5.43,-4.672 2.75,0 4.12,1.766 4.12,5.293 0,1.274 -0.14,3.317 -0.42,6.141 -0.85,8.469 -1.28,17.012 -1.28,25.617 0,11.293 0.63,23.785 1.89,37.481 0.16,2.113 0.24,3.668 0.24,4.656 0,3.668 -1.38,5.574 -4.13,5.715 -2.89,0.14 -4.7,-1.559 -5.42,-5.094 -1.85,-9.34 -3.9,-15.281 -6.16,-17.828 -2.27,-2.547 -7.22,-4.602 -14.86,-6.156 -8.63,-1.7 -20.37,-2.547 -35.23,-2.547 h -32.69 c -6.09,0 -9.73,0.672 -10.93,2.023 -1.2,1.348 -1.8,5.289 -1.8,11.824 v 85.633 c 0,7.528 1.27,12.391 3.81,14.594 z m -115.09,-8.055 c 4.1,-3.043 7.07,-9.586 8.91,-19.633 0.85,-4.531 2.55,-6.722 5.1,-6.578 3.11,0.278 4.59,2.532 4.45,6.766 -0.14,2.113 -0.56,5.562 -1.27,10.355 -0.71,3.805 -1.06,9.864 -1.06,18.18 0,8.316 -0.82,13.32 -2.44,15.012 -1.63,1.691 -6.34,2.539 -14.13,2.539 H 805.426 c -4.813,0 -7.961,-1.027 -9.453,-3.07 -1.489,-2.043 -2.231,-6.309 -2.231,-12.797 0,-6.629 -1.058,-15.02 -3.179,-25.172 -1.7,-7.899 -2.547,-13.328 -2.547,-16.289 0,-3.668 1.269,-5.574 3.82,-5.711 2.547,-0.145 4.457,2.547 5.727,8.062 2.832,12.739 6.832,21.403 11.992,26.004 5.168,4.598 13.48,6.899 24.937,6.899 h 56.25 c 5.383,0 8.813,-0.711 10.301,-2.129 1.48,-1.418 2.223,-4.676 2.223,-9.778 l 0.218,-5.531 v -210.68 c 0,-11.91 -1.91,-20.168 -5.73,-24.769 -3.82,-4.609 -11.18,-7.617 -22.078,-9.039 -4.672,-0.551 -7,-1.93 -7,-4.141 0,-3.039 2.117,-4.558 6.379,-4.558 1.41,0 6.16,0.418 14.25,1.269 4.109,0.43 9.14,0.641 15.097,0.641 l 16.59,0.211 15.531,-0.211 c 10.063,0 16.442,-0.211 19.141,-0.641 5.238,-0.851 8.719,-1.269 10.422,-1.269 3.969,0 5.949,1.519 5.949,4.57 0,2.348 -2.472,3.937 -7.422,4.769 -17.828,3.122 -27.097,12.969 -27.808,29.551 l -0.211,8.289 v 208.352 c 0,6.66 0.808,10.84 2.441,12.543 1.617,1.695 5.551,2.551 11.778,2.551 h 59.637 c 11.89,0 19.88,-1.524 23.99,-4.567 v 0"
         style="fill:#ffffff;fill-opacity:1;fill-rule:nonzero;stroke:none"
         transform="matrix(0.13333333,0,0,-0.13333333,0,92.426667)" />
      <path
         id="path3"
         d="m 3027.52,672.035 c 0,3.41 0.71,5.789 2.13,7.149 1.42,1.355 3.93,2.035 7.52,2.035 l 3.88,0.094 12.31,-0.094 c 14.07,0 22.4,-4.149 24.99,-12.442 0.31,-0.941 0.47,-2.039 0.47,-3.297 v -3.203 c 0,-1.761 0.66,-2.64 1.99,-2.64 2.4,0 3.6,2.593 3.6,7.785 0,1.012 -0.1,2.246 -0.29,3.703 l -0.94,7.219 c -0.07,0.633 -0.26,2.941 -0.57,6.929 -0.19,3.293 -1.04,4.938 -2.56,4.938 -1.58,0 -4.01,-0.133 -7.29,-0.398 -8.89,-0.731 -17.6,-1.098 -26.12,-1.098 l -24.9,-0.098 -16.28,-0.301 c -4.23,0 -8.23,0.161 -12.02,0.473 -2.59,0.191 -4.23,0.285 -4.92,0.285 -2.15,0 -3.22,-0.933 -3.22,-2.797 0,-1.414 0.82,-2.187 2.46,-2.312 6.06,-0.317 10.67,-1.86 13.82,-4.633 2.78,-2.394 4.17,-7.559 4.17,-15.5 v -77.777 c 0,-7.563 -0.67,-12.883 -1.99,-15.973 -1.33,-3.086 -3.88,-5.258 -7.67,-6.519 -1.77,-0.579 -2.65,-1.477 -2.65,-2.7 0,-1.672 1.04,-2.508 3.13,-2.508 1.57,0 4.66,0.317 9.27,0.95 3.41,0.441 7.48,0.66 12.21,0.66 h 10.51 c 6.88,0 11.45,-0.125 13.72,-0.379 2.4,-0.313 4.23,-0.473 5.49,-0.473 1.39,0 2.09,0.867 2.09,2.606 0,1.539 -1.01,2.406 -3.03,2.601 -7.2,0.567 -11.99,2.426 -14.39,5.575 -3.28,4.285 -4.92,11.152 -4.92,20.601 v 11.152 l -0.1,7.563 c 0,7.875 0.73,12.41 2.18,13.609 1.45,1.196 6.91,1.793 16.38,1.793 7.38,0 12.55,-1.133 15.52,-3.406 2.96,-2.269 5.08,-6.719 6.34,-13.348 0.32,-1.765 1.07,-2.617 2.27,-2.554 1.71,0.125 2.56,0.851 2.56,2.172 0,0.82 -0.07,2.171 -0.19,4.062 l -1.42,17.852 c -0.38,4.91 -0.57,9.191 -0.57,12.847 0,1.133 0.03,2.11 0.1,2.926 0.12,1.195 0.19,2.016 0.19,2.457 0,1.637 -0.95,2.457 -2.84,2.457 -0.83,0 -1.52,-0.726 -2.09,-2.18 -2.33,-5.867 -4.7,-9.812 -7.1,-11.832 -2.39,-2.019 -5.93,-3.027 -10.6,-3.027 l -10.31,-0.094 -3.6,-0.093 c -2.65,0 -4.44,0.597 -5.35,1.796 -0.92,1.2 -1.37,3.567 -1.37,7.098 v 30.289 z m -112.11,0.285 c 6,-5.55 10.79,-13.047 14.39,-22.48 3.6,-9.434 5.4,-19.106 5.4,-29.012 0,-17.164 -3.89,-30.875 -11.65,-41.129 -7.76,-10.254 -18.11,-15.379 -31.04,-15.379 -14.33,0 -25.97,6.2 -34.93,18.598 -8.96,12.402 -13.44,28.508 -13.44,48.324 0,16.785 3.56,29.875 10.69,39.281 7.13,9.403 17.04,14.102 29.72,14.102 11.87,0 22.15,-4.102 30.86,-12.305 v 0 z m -54.09,13.676 c -9.44,-3.82 -17.22,-9.109 -23.34,-15.867 -5.3,-5.746 -9.49,-12.867 -12.58,-21.359 -3.1,-8.493 -4.64,-17.036 -4.64,-25.625 0,-20.016 6.12,-36.008 18.36,-47.973 12.24,-11.969 28.59,-17.949 49.03,-17.949 21.39,0 38.18,6.882 50.36,20.648 12.49,14.082 18.74,31.254 18.74,51.527 0,18.629 -6.06,33.672 -18.17,45.137 -12.12,11.461 -28.02,17.192 -47.71,17.192 -10.6,0 -20.62,-1.911 -30.05,-5.731 z m -190.21,-69.09 c 0.28,1.199 1.08,2.774 2.41,4.731 6.69,10.527 14.04,23.515 22.05,38.965 4.48,8.64 8.19,14.503 11.13,17.593 2.93,3.09 6.76,5.2 11.5,6.336 2.27,0.516 3.4,1.446 3.4,2.797 0,1.481 -0.85,2.223 -2.56,2.223 -2.97,0 -5.47,-0.067 -7.49,-0.192 l -7.97,-0.472 c -2.52,-0.192 -4.83,-0.285 -6.92,-0.285 -3.86,0 -7.02,0.156 -9.48,0.472 l -6.26,0.852 c -1.46,0.191 -3.07,0.285 -4.84,0.285 -1.65,0 -2.47,-0.996 -2.47,-2.988 0,-1.285 1.01,-2.055 3.03,-2.313 3.98,-0.379 7.51,-1.73 10.6,-4.062 3.1,-2.332 4.64,-4.821 4.64,-7.465 0,-3.153 -3.45,-10.961 -10.36,-23.438 -3.4,-6.047 -5.5,-9.89 -6.32,-11.527 -3.26,-6.426 -5.9,-9.637 -7.91,-9.637 -2.02,0 -4.11,2.203 -6.25,6.614 -0.7,1.511 -2.56,5.164 -5.59,10.96 l -7.39,14.364 c -4.61,8.945 -6.91,14.742 -6.91,17.386 0,3.278 2.43,5.387 7.29,6.333 2.14,0.449 3.21,1.347 3.21,2.699 0,1.605 -1.32,2.414 -3.96,2.414 -1.33,0 -3.94,-0.192 -7.85,-0.571 -5.29,-0.566 -10.49,-0.851 -15.59,-0.851 -5.54,0 -11.72,0.379 -18.52,1.137 -3.34,0.379 -5.8,0.566 -7.37,0.566 -1.76,0 -2.65,-0.996 -2.65,-2.984 0,-1.606 1.17,-2.504 3.5,-2.696 7.7,-0.757 14.42,-6.55 20.17,-17.386 l 14.38,-27.032 c 3.98,-7.558 7.61,-14.046 10.89,-19.468 2.78,-4.536 4.16,-8.914 4.16,-13.133 v -18.051 c 0,-8.445 -1.24,-14.367 -3.73,-17.769 -2.5,-3.403 -7.28,-5.672 -14.34,-6.805 -1.77,-0.254 -2.66,-0.961 -2.66,-2.121 0,-2.121 0.73,-3.18 2.18,-3.18 1.2,0 3.09,0.223 5.67,0.664 3.91,0.695 11.75,1.039 23.53,1.039 4.92,0 8.6,-0.133 11.06,-0.394 l 13.42,-1.2 c 1.77,-0.195 3.41,-0.296 4.92,-0.296 2.83,0 4.25,0.929 4.25,2.793 0,1.667 -1.01,2.566 -3.03,2.695 -11.54,0.633 -17.85,4.508 -18.93,11.637 l -0.47,6.429 v 27.903 c 0,3.086 0.14,5.23 0.43,6.429 z m -149.16,60.481 c 2.37,1.48 8.35,2.222 17.94,2.222 7.13,0 12.57,-1.3 16.33,-3.898 3.75,-2.602 6.29,-6.848 7.62,-12.742 0.57,-2.41 1.58,-3.614 3.03,-3.614 1.7,0 2.55,1.04 2.55,3.122 0,2.019 -0.22,4.699 -0.66,8.046 -0.57,4.036 -0.88,6.594 -0.94,7.668 l -0.48,6.813 c -0.19,2.902 -2.02,4.355 -5.49,4.355 -0.94,0 -3.06,-0.062 -6.34,-0.191 -16.6,-0.82 -32.31,-1.23 -47.14,-1.23 l -23,0.285 -19.31,0.191 c -4.54,0 -8.04,0.094 -10.51,0.281 -1.51,0.125 -2.58,0.192 -3.21,0.192 -2.4,0 -3.73,-1.231 -3.98,-3.692 l -0.66,-5.777 -1.14,-8.422 -0.94,-8.234 c -0.57,-3.157 -0.89,-5.617 -0.95,-7.383 -0.13,-1.957 0.85,-2.934 2.93,-2.934 1.45,0 2.53,1.297 3.22,3.895 l 0.76,2.66 c 1.89,6.898 3.39,11.223 4.49,12.965 1.11,1.742 3.33,3.308 6.68,4.699 4.6,1.836 13.22,2.754 25.84,2.754 5.36,0 8.04,-2.492 8.04,-7.477 v -84.05 l 0.1,-4.45 c 0,-5.617 -1.34,-10.05 -4.02,-13.3 -2.69,-3.25 -6.49,-5.032 -11.41,-5.348 -1.89,-0.129 -3.12,-0.402 -3.69,-0.816 -0.57,-0.418 -0.89,-1.332 -0.95,-2.743 -0.06,-1.664 0.89,-2.5 2.84,-2.5 0.82,0 2.34,0.129 4.55,0.379 l 20.91,1.231 c 2.91,0.191 6.19,0.285 9.85,0.285 1.58,0 2.84,-0.031 3.78,-0.094 l 11.84,-0.758 7.1,-0.285 c 1.13,-0.062 1.92,-0.094 2.36,-0.094 1.96,0 2.94,0.739 2.94,2.215 0,2.055 -1.14,3.176 -3.41,3.367 -7.83,0.508 -13.29,2.985 -16.38,7.434 -3.09,4.449 -4.63,12.004 -4.63,22.668 v 71.277 c 0,5.868 1.18,9.543 3.54,11.028 z m -123.67,-7.703 c 0,5.421 0.65,9.015 1.94,10.781 1.29,1.765 4.21,3.027 8.76,3.781 1.26,0.195 2.05,0.481 2.36,0.867 0.32,0.387 0.48,1.157 0.48,2.313 0,1.543 -1.04,2.312 -3.13,2.312 -3.47,0 -8.45,-0.242 -14.95,-0.722 l -6.91,-0.539 c -5.24,-0.422 -9.63,-0.633 -13.16,-0.633 -5.36,0 -9.18,0.254 -11.45,0.758 -2.27,0.441 -3.98,0.695 -5.11,0.757 -1.52,0.063 -2.28,-0.8 -2.28,-2.593 0,-1.153 0.46,-1.969 1.38,-2.45 0.91,-0.48 2.98,-0.976 6.2,-1.488 5.36,-0.82 9.05,-2.457 11.07,-4.914 2.02,-2.461 3.03,-6.586 3.03,-12.379 v -75.32 l -0.09,-8.41 c 0,-5.485 -0.75,-9.407 -2.23,-11.77 -1.48,-2.363 -4.49,-4.363 -9.04,-6 l -2.74,-2.219 0.19,-0.769 c 0.37,-1.352 1.26,-2.027 2.65,-2.027 1.38,0 3.66,0.3 6.81,0.902 3.66,0.66 8.65,0.988 14.96,0.988 5.11,0 11.77,-0.465 19.97,-1.394 3.28,-0.328 5.8,-0.496 7.57,-0.496 4.1,0 6.15,0.929 6.15,2.789 0,1.925 -1.54,2.89 -4.63,2.89 -4.74,0 -8.57,1.293 -11.5,3.875 -2.94,2.586 -4.78,6.309 -5.54,11.164 l -0.76,9.457 v 80.489 z m -145.08,11.339 c -6.78,-7.007 -10.17,-15.722 -10.17,-26.14 0,-8.965 2.43,-16.149 7.3,-21.547 4.86,-5.398 14.09,-11.129 27.67,-17.191 l 14.41,-6.43 c 6.45,-2.832 10.98,-5.852 13.6,-9.059 2.63,-3.211 3.94,-7.301 3.94,-12.269 0,-6.293 -2.51,-11.875 -7.54,-16.754 -5.02,-4.875 -10.73,-7.313 -17.11,-7.313 -8.22,0 -16.15,3.684 -23.79,11.047 -7.65,7.367 -13.02,16.465 -16.12,27.293 -0.38,1.512 -1.01,2.266 -1.89,2.266 -1.96,0 -2.93,-1.516 -2.93,-4.543 0,-2.399 1.19,-7.891 3.59,-16.469 1.58,-5.617 2.53,-9.906 2.84,-12.875 0.32,-2.715 0.71,-4.34 1.19,-4.875 0.47,-0.535 2.16,-1.086 5.06,-1.656 2.08,-0.442 5.33,-1.387 9.75,-2.84 9.46,-2.965 16.37,-4.445 20.73,-4.445 10.66,0 19.97,4.07 27.92,12.215 7.95,8.14 11.93,17.707 11.93,28.691 0,9.976 -2.88,18.496 -8.63,25.57 -4.86,5.867 -14.79,11.867 -29.76,17.992 -12.58,5.106 -20.07,8.797 -22.47,11.067 -3.73,3.519 -5.59,7.699 -5.59,12.539 0,5.219 2.12,9.742 6.35,13.578 4.24,3.832 9.2,5.75 14.89,5.75 8.28,0 16.12,-3.211 23.51,-9.629 7.4,-6.422 12.01,-14.035 13.84,-22.844 0.51,-2.394 1.33,-3.589 2.46,-3.589 1.58,0 2.37,1.355 2.37,4.07 0,0.504 -0.06,1.137 -0.19,1.894 l -0.95,8.614 -1.23,9.273 c -0.12,1.074 -0.19,2.211 -0.19,3.41 l 0.19,7.668 c 0,2.082 -0.66,3.121 -1.99,3.121 -0.5,0 -1.01,-0.125 -1.52,-0.379 l -3.6,-1.796 c -0.95,-0.442 -1.86,-0.665 -2.75,-0.665 -1.2,0 -3.21,0.571 -6.05,1.704 l -6.34,2.652 c -5.68,2.269 -11.49,3.406 -17.42,3.406 -10.09,0 -18.53,-3.504 -25.31,-10.512 z m -129.68,-0.609 c 1.61,1.801 4.57,2.699 8.87,2.699 9.61,0 17.53,-3.109 23.76,-9.324 6.23,-6.219 9.35,-14.09 9.35,-23.617 0,-7.32 -2.31,-13.063 -6.93,-17.227 -2.34,-2.144 -4.85,-3.425 -7.54,-3.836 -2.69,-0.41 -9.66,-0.613 -20.92,-0.613 -3.92,0 -6.4,0.535 -7.44,1.609 -1.05,1.071 -1.57,3.629 -1.57,7.668 v 32.75 c 0,4.793 0.81,8.094 2.42,9.891 z m -2.42,-64.594 c 0,2.52 0.48,4.032 1.42,4.535 l 4.26,0.758 h 5.87 c 4.99,0 8.58,-0.933 10.79,-2.793 2.21,-1.863 5.01,-6.293 8.42,-13.3 8.75,-17.731 15.86,-29.786 21.34,-36.157 5.48,-6.375 11.46,-9.558 17.95,-9.558 3.99,0 8.57,1.164 13.74,3.5 5.16,2.336 7.74,4.418 7.74,6.246 0,1.449 -0.56,2.176 -1.7,2.176 -0.63,0 -1.32,-0.098 -2.08,-0.286 -1.26,-0.253 -2.62,-0.378 -4.07,-0.378 -3.54,0 -6.61,1.132 -9.23,3.406 -2.62,2.265 -5.6,6.336 -8.95,12.199 l -9.74,17.305 -8.43,14.945 c -1.14,2.078 -1.99,3.559 -2.56,4.441 -0.56,0.883 -0.88,1.641 -0.94,2.274 -0.07,0.758 0.53,1.387 1.8,1.894 6.12,2.653 10.93,6.536 14.43,11.649 3.5,5.117 5.25,10.801 5.25,17.054 0,9.915 -3.94,18.137 -11.83,24.676 -7.89,6.535 -17.82,9.805 -29.81,9.805 -4.04,0 -11.39,-0.41 -22.06,-1.231 -9.08,-0.695 -16.82,-1.042 -23.19,-1.042 -5.8,0 -11.14,0.253 -16,0.757 -1.57,0.192 -2.71,0.285 -3.4,0.285 -1.77,0 -2.65,-0.898 -2.65,-2.695 0,-1.793 1.29,-2.883 3.88,-3.269 7,-0.879 12.05,-3.43 15.14,-7.649 1.9,-2.582 2.84,-7.648 2.84,-15.203 v -68.367 l -0.09,-3.684 v -8.968 c 0,-4.598 -0.82,-8.012 -2.46,-10.247 -1.64,-2.238 -4.61,-4.011 -8.9,-5.335 -1.26,-0.387 -1.89,-1.286 -1.89,-2.7 0,-1.734 1.13,-2.601 3.4,-2.601 0.7,0 1.93,0.09 3.69,0.269 l 6.35,0.543 7.95,0.719 c 3.28,0.242 7.03,0.363 11.26,0.363 5.05,0 10.29,-0.222 15.71,-0.664 1.9,-0.187 3.19,-0.285 3.89,-0.285 2.14,0 3.21,0.898 3.21,2.695 0,1.797 -1.32,2.825 -3.97,3.078 -6.5,0.633 -10.86,3.075 -13.06,7.325 -2.21,4.254 -3.32,12.363 -3.32,24.336 v 19.179 z m -136.66,55.461 c 0,5.364 1.61,8.547 4.83,9.559 l 6.43,0.758 h 11.55 c 10.22,0 17.62,-1.41 22.2,-4.231 4.57,-2.82 6.86,-7.367 6.86,-13.64 0,-2.852 0.6,-4.247 1.8,-4.184 2.46,0.125 3.69,2.586 3.69,7.383 0,2.398 -0.25,6.344 -0.76,11.832 -0.37,3.722 -0.56,6.308 -0.56,7.762 0,2.082 -0.92,3.125 -2.75,3.125 -0.38,0 -0.82,-0.036 -1.32,-0.094 -4.8,-0.571 -17.52,-0.856 -38.15,-0.856 l -35.87,0.379 -9.56,0.379 c -1.96,0 -3.51,0.031 -4.64,0.098 -1.46,0.125 -2.4,0.187 -2.84,0.187 -2.08,0 -3.13,-0.742 -3.13,-2.218 0,-1.61 0.86,-2.543 2.56,-2.797 7.26,-1.012 12.04,-2.774 14.34,-5.293 2.3,-2.52 3.45,-7.309 3.45,-14.367 v -74.946 c 0,-5.73 -0.34,-10.269 -1.04,-13.605 -0.75,-3.973 -1.78,-6.727 -3.07,-8.27 -1.3,-1.547 -3.74,-3.012 -7.34,-4.394 -1.45,-0.582 -2.14,-1.45 -2.08,-2.61 0.12,-1.418 0.95,-2.125 2.46,-2.125 1.14,0 3,0.094 5.59,0.285 9.4,0.567 16.4,0.852 21.01,0.852 6.88,0 12.33,-0.191 16.37,-0.566 l 10.98,-1.043 c 4.93,-0.504 9.41,-0.758 13.44,-0.758 6.88,0 12.4,1.062 16.57,3.18 4.16,2.121 7.63,5.648 10.41,10.585 3.35,5.821 5.02,11.832 5.02,18.032 0,0.824 -0.27,1.5 -0.81,2.039 -0.53,0.539 -1.12,0.746 -1.75,0.621 -0.31,-0.067 -0.69,-0.477 -1.13,-1.235 -7.89,-15.585 -24.65,-23.378 -50.27,-23.378 -3.02,0 -5.26,0.503 -6.72,1.511 -1.45,1.008 -2.71,2.93 -3.78,5.766 -1.39,3.902 -2.08,10.301 -2.08,19.184 v 8.503 c 0,6.805 0.18,11.782 0.56,14.93 0.38,2.774 1.12,4.613 2.23,5.527 1.1,0.915 3.17,1.372 6.2,1.372 h 6.43 c 6.5,0 10.94,-0.219 13.3,-0.661 2.37,-0.445 4.37,-1.421 6.01,-2.933 2.97,-2.781 4.86,-6.852 5.68,-12.211 0.38,-2.527 1.36,-3.727 2.94,-3.598 0.75,0.063 1.26,0.281 1.51,0.664 0.19,0.317 0.29,0.914 0.29,1.801 l -0.1,4.836 c 0,3.605 -0.19,7.844 -0.57,12.711 -0.56,7.461 -0.85,12.203 -0.85,14.23 0,1.137 0.06,2.528 0.19,4.172 0.19,2.278 0.28,3.668 0.28,4.172 0,1.774 -0.69,2.625 -2.08,2.563 -1.32,-0.063 -2.27,-0.661 -2.84,-1.797 l -2.17,-4.641 c -3.41,-6.879 -8.24,-10.316 -14.49,-10.316 h -8.04 l -4.17,-0.094 -2.84,-0.094 c -3.28,0 -5.34,0.789 -6.2,2.367 -0.85,1.575 -1.27,5.297 -1.27,11.168 v 20.539 l 0.09,3.883 z m -162.74,4.93 c 0,4.602 2.33,7.312 7,8.133 2.65,0.511 3.98,1.508 3.98,2.984 0,1.731 -0.89,2.598 -2.65,2.598 -1.26,0 -4,-0.125 -8.22,-0.375 l -9.92,-0.477 -15.88,0.477 c -4.28,0 -8.03,0.187 -11.24,0.566 -1.39,0.125 -2.33,0.188 -2.83,0.188 -1.77,0 -2.65,-0.867 -2.65,-2.598 0,-1.602 1.26,-2.664 3.79,-3.176 4.41,-0.945 7.9,-3.277 10.46,-7 2.55,-3.718 6.01,-11.383 10.36,-22.984 3.66,-9.899 8.24,-21.09 13.73,-33.574 l 22.43,-50.887 2.37,-5.773 2.17,-4.821 c 0.71,-1.515 1.66,-2.269 2.88,-2.269 1.79,0 3.29,1.418 4.51,4.254 0.44,1.07 2.36,5.109 5.77,12.109 0.44,0.816 3.28,7.059 8.52,18.727 l 16.18,35.66 14.11,32.629 c 4.29,9.648 7.59,16 9.89,19.058 2.3,3.059 5.28,4.934 8.94,5.629 1.9,0.387 2.84,1.316 2.84,2.793 0,1.609 -0.56,2.414 -1.7,2.414 -0.88,0 -2.14,-0.129 -3.78,-0.379 -4.21,-0.758 -9.19,-1.137 -14.92,-1.137 -1.89,0 -5.07,0.125 -9.54,0.379 l -9.92,0.567 c -2.71,0.129 -4.47,0.191 -5.29,0.191 -1.58,0 -2.36,-0.742 -2.36,-2.222 0,-1.481 1.1,-2.348 3.31,-2.606 5.11,-0.758 9.04,-2.379 11.78,-4.871 2.75,-2.488 4.12,-5.688 4.12,-9.598 0,-6.871 -3.51,-18.062 -10.54,-33.57 l -21.37,-47.281 c -0.82,-1.828 -1.58,-2.711 -2.28,-2.649 -0.76,0.063 -1.61,1.231 -2.56,3.5 l -21.12,51.727 c -6.92,16.769 -10.37,27.988 -10.37,33.664 v 0 z m -89.2,-6.527 c 0,5.421 0.65,9.015 1.95,10.781 1.29,1.765 4.21,3.027 8.75,3.781 1.26,0.195 2.05,0.481 2.37,0.867 0.31,0.387 0.47,1.157 0.47,2.313 0,1.543 -1.04,2.312 -3.12,2.312 -3.47,0 -8.46,-0.242 -14.96,-0.722 l -6.91,-0.539 c -5.24,-0.422 -9.62,-0.633 -13.16,-0.633 -5.36,0 -9.18,0.254 -11.45,0.758 -2.27,0.441 -3.97,0.695 -5.11,0.757 -1.51,0.063 -2.27,-0.8 -2.27,-2.593 0,-1.153 0.46,-1.969 1.37,-2.45 0.91,-0.48 2.98,-0.976 6.2,-1.488 5.36,-0.82 9.05,-2.457 11.08,-4.914 2.01,-2.461 3.02,-6.586 3.02,-12.379 v -75.32 l -0.09,-8.41 c 0,-5.485 -0.74,-9.407 -2.22,-11.77 -1.49,-2.363 -4.5,-4.363 -9.04,-6 l -2.75,-2.219 0.19,-0.769 c 0.38,-1.352 1.26,-2.027 2.65,-2.027 1.39,0 3.66,0.3 6.82,0.902 3.65,0.66 8.64,0.988 14.95,0.988 5.11,0 11.77,-0.465 19.97,-1.394 3.28,-0.328 5.81,-0.496 7.58,-0.496 4.1,0 6.15,0.929 6.15,2.789 0,1.925 -1.55,2.89 -4.64,2.89 -4.73,0 -8.57,1.293 -11.5,3.875 -2.93,2.586 -4.78,6.309 -5.54,11.164 l -0.76,9.457 v 80.489 z m -168.07,3.488 -6.51,7.668 c -3.66,4.355 -6.05,6.957 -7.18,7.808 -1.14,0.852 -2.68,1.278 -4.63,1.278 -1.39,0 -3.13,-0.094 -5.22,-0.281 -5.63,-0.571 -10.92,-0.856 -15.85,-0.856 l -3.99,-0.094 -6.55,0.285 c -2.15,0 -3.22,-0.902 -3.22,-2.699 0,-1.48 0.98,-2.285 2.93,-2.414 14.32,-1.008 21.49,-11.203 21.49,-30.594 v -40.984 l -0.67,-22.473 c 0,-7.746 -1.05,-13.679 -3.17,-17.8 -2.11,-4.125 -5.47,-6.848 -10.08,-8.168 -1.83,-0.516 -2.74,-1.418 -2.74,-2.703 0,-1.543 0.85,-2.317 2.56,-2.317 1.01,0 2.62,0.184 4.84,0.543 4.99,0.902 10.68,1.352 17.07,1.352 6.45,0 12.33,-0.442 17.64,-1.325 1.7,-0.253 2.94,-0.378 3.7,-0.378 1.96,0 2.94,0.96 2.94,2.886 0,1.414 -0.95,2.219 -2.84,2.414 -10.23,0.946 -16.38,4.95 -18.46,12.008 -1.96,6.621 -2.94,19.731 -2.94,39.336 v 36.691 l 0.1,2.743 c 0,2.836 0.75,4.257 2.27,4.257 0.56,0 1.6,-0.824 3.12,-2.46 l 86.11,-95.7 c 1.19,-1.324 2.36,-2.019 3.49,-2.082 1.28,-0.062 1.92,0.789 1.92,2.555 l -0.38,11.824 -0.1,7.188 0.1,10.5 0.38,8.133 1.34,59.113 v 4.637 c 0,12.925 4.07,20.144 12.21,21.66 2.02,0.32 3.03,1.281 3.03,2.886 0,1.797 -1.01,2.696 -3.03,2.696 -0.57,0 -1.49,-0.063 -2.76,-0.188 -9.48,-1.199 -16.4,-1.801 -20.76,-1.801 -2.16,0 -4.87,0.192 -8.16,0.571 -5.06,0.629 -8.73,0.945 -11,0.945 -1.84,0 -2.75,-0.836 -2.75,-2.512 0,-1.351 1.04,-2.093 3.12,-2.218 8.77,-0.633 14.66,-3.563 17.65,-8.793 3,-5.235 4.5,-15.254 4.5,-30.071 0,-12.605 -0.28,-25.875 -0.85,-39.804 -0.13,-3.844 -0.85,-5.766 -2.17,-5.766 -1.45,0 -4.32,2.398 -8.6,7.191 l -3.21,3.598 -50.06,56.227 c -0.5,0.629 -2.04,2.461 -4.63,5.488 v 0 z m -127.76,14.723 c 0,-1.864 1.23,-2.793 3.69,-2.793 5.62,0 10.07,-1.629 13.35,-4.875 3.28,-3.254 5.11,-7.813 5.49,-13.68 l 0.47,-19.402 v -7.668 c 0,-17.481 -1.05,-30.891 -3.17,-40.231 -2.11,-9.34 -5.69,-16.437 -10.74,-21.297 -7.51,-7.191 -17.36,-10.789 -29.53,-10.789 -11.93,0 -21.71,3.5 -29.35,10.508 -5.05,4.605 -8.37,10.141 -9.98,16.609 -1.61,6.469 -2.42,17.336 -2.42,32.61 l -0.19,16.754 1.52,23.851 c 0.31,6.121 1.13,10.238 2.46,12.356 1.32,2.113 3.91,3.547 7.76,4.304 1.89,0.387 3.09,0.77 3.6,1.157 0.5,0.382 0.76,1.089 0.76,2.113 0,1.859 -1.64,2.789 -4.92,2.789 -1.32,0 -3.5,-0.129 -6.52,-0.379 -7.5,-0.695 -14.33,-1.043 -20.51,-1.043 -4.34,0 -10.52,0.379 -18.52,1.137 -1.89,0.191 -3.18,0.285 -3.87,0.285 -2.14,0 -3.22,-0.836 -3.22,-2.504 0,-1.543 1.24,-2.508 3.7,-2.891 3.84,-0.57 7.32,-1.578 10.41,-3.027 2.65,-1.262 4.4,-2.773 5.25,-4.543 0.85,-1.766 1.28,-4.789 1.28,-9.078 l 0.28,-17.215 -1.04,-36.605 c 0,-23.774 6.03,-39.789 18.08,-48.047 8.9,-6.055 21.39,-9.078 37.48,-9.078 22.78,0 38.94,7.343 48.47,22.035 3.97,6.055 6.86,14.66 8.66,25.824 1.8,11.16 2.7,25.852 2.7,44.074 l 0.19,11.633 -0.1,8.231 c 0,9.71 2.46,14.976 7.38,15.796 l 3.6,0.661 c 1.58,0.257 2.37,1.031 2.37,2.32 0,1.672 -0.86,2.508 -2.56,2.508 -0.95,0 -2,-0.063 -3.13,-0.188 -2.41,-0.316 -5.19,-0.601 -8.35,-0.851 l -9.3,-0.379 -10.05,0.472 c -3.92,0.192 -6.42,0.379 -7.49,0.567 -1.02,0.254 -1.74,0.347 -2.19,0.285 -1.2,-0.066 -1.8,-0.836 -1.8,-2.316 v 0 z m -268.58,-16.614 c 0,5.364 1.6,8.547 4.82,9.559 l 6.44,0.758 h 11.55 c 10.22,0 17.62,-1.41 22.19,-4.231 4.58,-2.82 6.87,-7.367 6.87,-13.64 0,-2.852 0.6,-4.247 1.79,-4.184 2.47,0.125 3.7,2.586 3.7,7.383 0,2.398 -0.26,6.344 -0.76,11.832 -0.38,3.722 -0.57,6.308 -0.57,7.762 0,2.082 -0.91,3.125 -2.74,3.125 -0.38,0 -0.82,-0.036 -1.33,-0.094 -4.8,-0.571 -17.51,-0.856 -38.14,-0.856 l -35.88,0.379 -9.56,0.379 c -1.96,0 -3.5,0.031 -4.64,0.098 -1.45,0.125 -2.4,0.187 -2.84,0.187 -2.08,0 -3.12,-0.742 -3.12,-2.218 0,-1.61 0.85,-2.543 2.55,-2.797 7.26,-1.012 12.04,-2.774 14.35,-5.293 2.3,-2.52 3.45,-7.309 3.45,-14.367 v -74.946 c 0,-5.73 -0.35,-10.269 -1.04,-13.605 -0.76,-3.973 -1.78,-6.727 -3.08,-8.27 -1.29,-1.547 -3.74,-3.012 -7.33,-4.394 -1.46,-0.582 -2.15,-1.45 -2.09,-2.61 0.13,-1.418 0.95,-2.125 2.47,-2.125 1.13,0 2.99,0.094 5.58,0.285 9.4,0.567 16.41,0.852 21.01,0.852 6.88,0 12.34,-0.191 16.38,-0.566 l 10.98,-1.043 c 4.92,-0.504 9.4,-0.758 13.44,-0.758 6.88,0 12.4,1.062 16.56,3.18 4.17,2.121 7.64,5.648 10.42,10.585 3.34,5.821 5.01,11.832 5.01,18.032 0,0.824 -0.27,1.5 -0.8,2.039 -0.54,0.539 -1.12,0.746 -1.75,0.621 -0.32,-0.067 -0.7,-0.477 -1.14,-1.235 -7.89,-15.585 -24.64,-23.378 -50.26,-23.378 -3.03,0 -5.27,0.503 -6.72,1.511 -1.45,1.008 -2.71,2.93 -3.79,5.766 -1.39,3.902 -2.08,10.301 -2.08,19.184 v 8.503 c 0,6.805 0.19,11.782 0.57,14.93 0.38,2.774 1.12,4.613 2.22,5.527 1.11,0.915 3.17,1.372 6.2,1.372 h 6.44 c 6.5,0 10.93,-0.219 13.3,-0.661 2.36,-0.445 4.37,-1.421 6.01,-2.933 2.96,-2.781 4.86,-6.852 5.68,-12.211 0.38,-2.527 1.35,-3.727 2.93,-3.598 0.76,0.063 1.26,0.281 1.52,0.664 0.19,0.317 0.28,0.914 0.28,1.801 l -0.09,4.836 c 0,3.605 -0.19,7.844 -0.57,12.711 -0.57,7.461 -0.85,12.203 -0.85,14.23 0,1.137 0.06,2.528 0.19,4.172 0.19,2.278 0.28,3.668 0.28,4.172 0,1.774 -0.7,2.625 -2.08,2.563 -1.33,-0.063 -2.27,-0.661 -2.84,-1.797 l -2.18,-4.641 c -3.41,-6.879 -8.23,-10.316 -14.48,-10.316 h -8.05 l -4.16,-0.094 -2.84,-0.094 c -3.28,0 -5.35,0.789 -6.2,2.367 -0.85,1.575 -1.28,5.297 -1.28,11.168 v 20.539 l 0.1,3.883 z m -115.54,-48.98 c 0.82,-1.293 1.23,-5.028 1.23,-11.199 v -20.793 l -0.09,-5.102 c 0,-6.555 -0.94,-11.437 -2.8,-14.648 -1.86,-3.215 -4.93,-5.168 -9.23,-5.86 -1.57,-0.191 -2.36,-0.965 -2.36,-2.312 0,-2.121 1.01,-3.18 3.03,-3.18 1.01,0 3.44,0.223 7.29,0.664 6.49,0.695 11.73,1.039 15.71,1.039 6.18,0 13.03,-0.441 20.54,-1.324 3.28,-0.379 5.49,-0.566 6.62,-0.566 3.29,0 4.93,0.996 4.93,2.984 0,1.668 -1.17,2.504 -3.51,2.504 -6.5,0 -11.18,1.969 -14.05,5.906 -2.87,3.938 -4.31,10.379 -4.31,19.328 v 81.184 c 0,8.125 3.72,12.82 11.17,14.078 1.83,0.32 2.75,1.191 2.75,2.605 0,1.735 -1.14,2.602 -3.41,2.602 -2.34,0 -5.78,-0.223 -10.32,-0.66 -7.57,-0.824 -12.56,-1.235 -14.95,-1.235 -6.88,0 -12.91,0.399 -18.08,1.196 -3.03,0.465 -5.12,0.699 -6.25,0.699 -2.02,0 -3.03,-0.934 -3.03,-2.793 0,-1.539 0.88,-2.473 2.65,-2.793 l 4.35,-0.852 c 8.9,-1.64 13.35,-6.5 13.35,-14.574 v -20.351 c 0,-7.004 -0.43,-11.282 -1.28,-12.828 -0.85,-1.547 -3.2,-2.317 -7.05,-2.317 h -44.2 c -5.176,0 -8.215,0.547 -9.137,1.652 -0.91,1.102 -1.371,4.868 -1.371,11.29 v 24.285 c 0,8.121 3.723,12.816 11.168,14.074 1.83,0.32 2.74,1.191 2.74,2.605 0,1.735 -1.13,2.602 -3.4,2.602 -2.336,0 -5.777,-0.223 -10.316,-0.66 -7.641,-0.824 -12.621,-1.235 -14.961,-1.235 -6.868,0 -12.868,0.399 -17.981,1.196 -3.027,0.465 -5.109,0.699 -6.25,0.699 -2.019,0 -3.027,-0.934 -3.027,-2.793 0,-1.477 0.89,-2.406 2.648,-2.793 6.762,-1.324 11.379,-3.074 13.871,-5.246 2.489,-2.176 3.739,-5.566 3.739,-10.168 v -78.883 l -0.09,-5.105 c 0,-6.559 -0.938,-11.446 -2.797,-14.66 -1.863,-3.215 -4.941,-5.172 -9.231,-5.864 -1.57,-0.191 -2.363,-0.965 -2.363,-2.312 0,-2.121 1.012,-3.18 3.031,-3.18 1.012,0 3.442,0.223 7.282,0.664 6.5,0.695 11.711,1.039 15.621,1.039 6.25,0 13.097,-0.441 20.534,-1.324 3.35,-0.379 5.59,-0.566 6.72,-0.566 3.28,0 4.93,0.996 4.93,2.984 0,1.668 -1.08,2.504 -3.22,2.504 -6.63,0 -11.386,1.969 -14.296,5.906 -2.899,3.938 -4.352,10.379 -4.352,19.328 v 23.531 c 0,4.977 0.524,8.051 1.563,9.215 1.039,1.164 3.8,1.746 8.275,1.746 h 44.87 c 3.91,0 6.28,-0.644 7.1,-1.933 z m -181.327,55.086 c 2.371,1.48 8.351,2.222 17.941,2.222 7.129,0 12.57,-1.3 16.328,-3.898 3.75,-2.602 6.293,-6.848 7.621,-12.742 0.563,-2.41 1.571,-3.614 3.032,-3.614 1.699,0 2.55,1.04 2.55,3.122 0,2.019 -0.222,4.699 -0.66,8.046 -0.57,4.036 -0.89,6.594 -0.949,7.668 l -0.473,6.813 c -0.187,2.902 -2.019,4.355 -5.488,4.355 -0.949,0 -3.062,-0.062 -6.34,-0.191 -16.601,-0.82 -32.312,-1.23 -47.14,-1.23 l -23,0.285 -19.309,0.191 c -4.551,0 -8.051,0.094 -10.512,0.281 -1.511,0.125 -2.59,0.192 -3.219,0.192 -2.402,0 -3.722,-1.231 -3.972,-3.692 l -0.668,-5.777 -1.129,-8.422 -0.953,-8.234 c -0.57,-3.157 -0.879,-5.617 -0.938,-7.383 -0.132,-1.957 0.848,-2.934 2.93,-2.934 1.449,0 2.52,1.297 3.219,3.895 l 0.761,2.66 c 1.887,6.898 3.387,11.223 4.489,12.965 1.101,1.742 3.332,3.308 6.672,4.699 4.609,1.836 13.218,2.754 25.847,2.754 5.36,0 8.039,-2.492 8.039,-7.477 v -84.05 l 0.102,-4.45 c 0,-5.617 -1.352,-10.05 -4.031,-13.3 -2.68,-3.25 -6.481,-5.032 -11.399,-5.348 -1.898,-0.129 -3.129,-0.402 -3.691,-0.816 -0.57,-0.418 -0.891,-1.332 -0.949,-2.743 -0.059,-1.664 0.879,-2.5 2.839,-2.5 0.821,0 2.332,0.129 4.54,0.379 l 20.921,1.231 c 2.899,0.191 6.18,0.285 9.84,0.285 1.578,0 2.84,-0.031 3.789,-0.094 l 11.832,-0.758 7.098,-0.285 c 1.141,-0.062 1.93,-0.094 2.371,-0.094 1.949,0 2.93,0.739 2.93,2.215 0,2.055 -1.129,3.176 -3.399,3.367 -7.832,0.508 -13.293,2.985 -16.382,7.434 -3.09,4.449 -4.637,12.004 -4.637,22.668 v 71.277 c 0,5.868 1.187,9.543 3.547,11.028 v 0"
         style="fill:#ffffff;fill-opacity:1;fill-rule:nonzero;stroke:none"
         transform="matrix(0.13333333,0,0,-0.13333333,0,92.426667)" />
      <path
         id="path4"
         d="m 2002.99,114.051 c 0,5.371 1.61,8.551 4.83,9.558 l 6.43,0.762 h 11.55 c 10.22,0 17.62,-1.41 22.2,-4.23 4.57,-2.821 6.86,-7.371 6.86,-13.641 0,-2.852 0.6,-4.25 1.8,-4.18 2.46,0.121 3.69,2.578 3.69,7.379 0,2.403 -0.25,6.34 -0.76,11.832 -0.38,3.731 -0.56,6.309 -0.56,7.758 0,2.09 -0.92,3.133 -2.75,3.133 -0.38,0 -0.82,-0.031 -1.32,-0.102 -4.8,-0.558 -17.52,-0.851 -38.15,-0.851 l -35.87,0.383 -9.56,0.378 c -1.96,0 -3.51,0.032 -4.64,0.09 -1.46,0.129 -2.4,0.192 -2.84,0.192 -2.09,0 -3.13,-0.742 -3.13,-2.223 0,-1.609 0.86,-2.539 2.56,-2.789 7.26,-1.012 12.04,-2.781 14.34,-5.301 2.3,-2.519 3.45,-7.308 3.45,-14.359 V 32.8906 c 0,-5.7304 -0.34,-10.2695 -1.04,-13.6015 -0.75,-3.9688 -1.78,-6.7305 -3.07,-8.2696 -1.3,-1.55075 -3.74,-3.00778 -7.34,-4.39841 -1.45,-0.58203 -2.14,-1.44921 -2.08,-2.60937 0.12,-1.41016 0.95,-2.12109 2.46,-2.12109 1.14,0 3,0.08984 5.58,0.28125 9.41,0.5664 16.41,0.84765 21.02,0.84765 6.88,0 12.33,-0.1914 16.37,-0.55859 L 2024,1.42188 c 4.93,-0.511724 9.41,-0.761724 13.44,-0.761724 6.88,0 12.4,1.058594 16.57,3.179684 4.16,2.1211 7.63,5.64063 10.41,10.58206 3.35,5.8164 5.02,11.8281 5.02,18.0273 0,0.8321 -0.27,1.5117 -0.81,2.0391 -0.53,0.543 -1.12,0.75 -1.75,0.6211 -0.31,-0.0586 -0.69,-0.4688 -1.13,-1.2305 C 2057.86,18.2891 2041.1,10.5 2015.48,10.5 c -3.02,0 -5.27,0.5 -6.72,1.5117 -1.45,1.0078 -2.71,2.9297 -3.78,5.7696 -1.39,3.8984 -2.08,10.2968 -2.08,19.1796 v 8.5079 c 0,6.8007 0.18,11.7812 0.56,14.9296 0.38,2.7735 1.12,4.6133 2.23,5.5235 1.1,0.9179 3.17,1.3789 6.2,1.3789 h 6.43 c 6.5,0 10.94,-0.2305 13.3,-0.6719 2.37,-0.4375 4.37,-1.418 6.01,-2.9297 2.97,-2.7773 4.86,-6.8476 5.68,-12.2109 0.38,-2.5274 1.36,-3.7266 2.94,-3.5977 0.75,0.0586 1.26,0.2813 1.51,0.6602 0.19,0.3203 0.29,0.918 0.29,1.8086 l -0.1,4.832 c 0,3.6094 -0.19,7.8477 -0.57,12.707 -0.56,7.4727 -0.85,12.211 -0.85,14.2305 0,1.1406 0.06,2.5313 0.19,4.1797 0.19,2.2695 0.28,3.6602 0.28,4.1719 0,1.7695 -0.69,2.6211 -2.08,2.5586 -1.32,-0.0586 -2.27,-0.6602 -2.84,-1.8008 l -2.17,-4.6367 c -3.41,-6.8711 -8.24,-10.3125 -14.49,-10.3125 h -8.04 l -4.17,-0.0977 -2.84,-0.0898 c -3.28,0 -5.34,0.789 -6.2,2.3593 -0.85,1.5782 -1.27,5.3086 -1.27,11.168 v 20.5431 l 0.09,3.879 z m -130.24,0.121 c 0,8.316 3.19,12.699 9.56,13.137 2.71,0.121 4.07,0.961 4.07,2.5 0,1.8 -1.89,2.703 -5.69,2.703 -5.12,0 -10.14,-0.25 -15.07,-0.75 -6.64,-0.762 -11.47,-1.141 -14.51,-1.141 -1.9,0 -4.77,0.188 -8.63,0.57 l -4.07,0.278 c -1.58,0.191 -2.82,0.32 -3.7,0.383 -1.2,0.187 -2.12,0.277 -2.75,0.277 -1.9,0 -2.85,-0.957 -2.85,-2.879 0,-1.539 1.2,-2.512 3.6,-2.891 l 5.68,-0.937 c 8.39,-1.332 12.59,-7.024 12.59,-17.102 V 29.3789 c 0,-7.3672 -0.77,-12.668 -2.32,-15.9101 -1.55,-3.2383 -4.34,-5.42974 -8.38,-6.55864 -1.64,-0.46094 -2.46,-1.26172 -2.46,-2.42188 0,-1.66797 0.92,-2.50781 2.75,-2.50781 0.88,0 2.62,0.14844 5.2,0.44922 8.46,0.96875 16.35,1.44922 23.67,1.44922 4.41,0 8.36,-0.09766 11.83,-0.28907 l 10.32,-0.46875 c 6.43,-0.38281 10.22,-0.60156 11.36,-0.66015 4.35,-0.32031 7.35,-0.48047 8.99,-0.48047 7.95,0 14.23,2.78125 18.83,8.32813 5.24,6.3125 7.86,13.4727 7.86,21.4922 0,2.5898 -0.58,3.8789 -1.73,3.8789 -0.7,0 -2.43,-1.918 -5.18,-5.75 -8.93,-12.5703 -24.09,-18.8594 -45.48,-18.8594 -4.59,0 -7.67,0.4102 -9.24,1.2305 -2.83,1.4492 -4.25,8.0586 -4.25,19.8398 v 82.0314 z m -130.24,0 c 0,8.316 3.19,12.699 9.56,13.137 2.71,0.121 4.07,0.961 4.07,2.5 0,1.8 -1.89,2.703 -5.69,2.703 -5.12,0 -10.14,-0.25 -15.07,-0.75 -6.64,-0.762 -11.47,-1.141 -14.51,-1.141 -1.89,0 -4.77,0.188 -8.63,0.57 l -4.07,0.278 c -1.58,0.191 -2.82,0.32 -3.7,0.383 -1.2,0.187 -2.12,0.277 -2.75,0.277 -1.9,0 -2.84,-0.957 -2.84,-2.879 0,-1.539 1.19,-2.512 3.59,-2.891 l 5.68,-0.937 c 8.39,-1.332 12.59,-7.024 12.59,-17.102 V 29.3789 c 0,-7.3672 -0.77,-12.668 -2.32,-15.9101 -1.54,-3.2383 -4.34,-5.42974 -8.37,-6.55864 -1.65,-0.46094 -2.47,-1.26172 -2.47,-2.42188 0,-1.66797 0.92,-2.50781 2.75,-2.50781 0.88,0 2.62,0.14844 5.21,0.44922 8.45,0.96875 16.34,1.44922 23.66,1.44922 4.42,0 8.36,-0.09766 11.83,-0.28907 l 10.32,-0.46875 c 6.43,-0.38281 10.22,-0.60156 11.36,-0.66015 4.35,-0.32031 7.35,-0.48047 8.99,-0.48047 7.95,0 14.23,2.78125 18.84,8.32813 5.23,6.3125 7.85,13.4727 7.85,21.4922 0,2.5898 -0.57,3.8789 -1.73,3.8789 -0.7,0 -2.43,-1.918 -5.18,-5.75 -8.93,-12.5703 -24.09,-18.8594 -45.48,-18.8594 -4.59,0 -7.67,0.4102 -9.24,1.2305 -2.83,1.4492 -4.25,8.0586 -4.25,19.8398 v 82.0314 z m -92.53,-1.711 c 0,5.418 0.64,9.008 1.94,10.777 1.29,1.774 4.21,3.032 8.75,3.782 1.27,0.191 2.05,0.48 2.37,0.871 0.32,0.379 0.47,1.148 0.47,2.308 0,1.539 -1.04,2.313 -3.12,2.313 -3.47,0 -8.46,-0.242 -14.96,-0.723 l -6.91,-0.539 c -5.23,-0.422 -9.62,-0.629 -13.15,-0.629 -5.37,0 -9.18,0.25 -11.46,0.758 -2.27,0.441 -3.97,0.691 -5.11,0.75 -1.51,0.07 -2.27,-0.801 -2.27,-2.59 0,-1.148 0.46,-1.969 1.37,-2.449 0.92,-0.481 2.99,-0.981 6.2,-1.488 5.37,-0.821 9.06,-2.461 11.08,-4.911 2.02,-2.461 3.03,-6.589 3.03,-12.382 V 32.9883 l -0.1,-8.4102 c 0,-5.4765 -0.74,-9.4062 -2.22,-11.7695 -1.49,-2.3594 -4.5,-4.35938 -9.04,-6.00001 l -2.75,-2.21875 0.19,-0.76953 c 0.38,-1.35156 1.26,-2.03125 2.65,-2.03125 1.39,0 3.66,0.3125 6.82,0.91016 3.66,0.66016 8.64,0.99219 14.95,0.99219 5.12,0 11.77,-0.47266 19.98,-1.40235 3.28,-0.32812 5.8,-0.5 7.57,-0.5 4.1,0 6.15,0.92969 6.15,2.78907 0,1.93359 -1.55,2.89062 -4.64,2.89062 -4.73,0 -8.56,1.30078 -11.5,3.88285 -2.93,2.5898 -4.78,6.3086 -5.53,11.1601 l -0.76,9.4571 v 80.4922 z m -161.41,6.519 c 0,4.61 2.34,7.321 7.01,8.141 2.65,0.508 3.97,1.508 3.97,2.981 0,1.738 -0.88,2.597 -2.64,2.597 -1.26,0 -4.01,-0.129 -8.22,-0.379 l -9.93,-0.468 -15.87,0.468 c -4.28,0 -8.03,0.192 -11.24,0.571 -1.39,0.129 -2.34,0.187 -2.84,0.187 -1.76,0 -2.64,-0.867 -2.64,-2.598 0,-1.601 1.26,-2.66 3.78,-3.171 4.42,-0.95 7.91,-3.278 10.46,-7 2.56,-3.719 6.01,-11.387 10.37,-22.9887 3.66,-9.8984 8.23,-21.0898 13.72,-33.5703 l 22.43,-50.8906 2.37,-5.76956 2.18,-4.82031 C 1512.18,0.75 1513.14,0 1514.35,0 c 1.79,0 3.3,1.42188 4.51,4.25 0.44,1.07031 2.37,5.10938 5.77,12.1094 0.45,0.8203 3.29,7.0625 8.52,18.7304 l 16.19,35.6602 14.1,32.629 c 4.29,9.641 7.59,16 9.9,19.062 2.3,3.047 5.28,4.93 8.94,5.618 1.89,0.39 2.84,1.32 2.84,2.8 0,1.61 -0.57,2.411 -1.7,2.411 -0.88,0 -2.14,-0.129 -3.78,-0.379 -4.22,-0.762 -9.2,-1.129 -14.93,-1.129 -1.89,0 -5.07,0.117 -9.54,0.367 l -9.91,0.57 c -2.71,0.129 -4.48,0.192 -5.3,0.192 -1.57,0 -2.36,-0.743 -2.36,-2.219 0,-1.481 1.11,-2.352 3.32,-2.613 5.11,-0.75 9.04,-2.379 11.78,-4.868 2.75,-2.492 4.12,-5.691 4.12,-9.601 0,-6.871 -3.52,-18.0587 -10.54,-33.5705 l -21.37,-47.2812 c -0.83,-1.8281 -1.59,-2.707 -2.28,-2.6367 -0.76,0.0586 -1.62,1.2187 -2.57,3.4882 l -21.12,51.7305 c -6.91,16.7697 -10.37,27.9887 -10.37,33.6597 v 0 z m -118.39,10.84 c -0.13,-1.672 0.95,-2.672 3.22,-2.992 l 4.26,-0.656 c 5.24,-0.692 7.86,-3.121 7.86,-7.281 0,-2.2 -0.65,-4.34 -1.95,-6.422 -1.3,-2.078 -4.54,-6.11 -9.73,-12.098 l -9.87,-11.7226 -4.37,-5.0976 c -1.01,-1.1406 -1.83,-1.7305 -2.46,-1.8008 -1.08,-0.0586 -2.6,1.3281 -4.57,4.1602 l -6.84,9.9296 -6.56,8.9692 c -4.32,6.812 -6.63,12.043 -6.95,15.691 -0.12,1.578 0.57,3.059 2.09,4.441 1.51,1.387 3.37,2.239 5.58,2.559 2.27,0.25 3.41,1.25 3.41,2.98 0,1.668 -0.98,2.508 -2.93,2.508 -1.39,0 -3.4,-0.129 -6.05,-0.379 l -8.79,-0.949 c -3.46,-0.379 -7.56,-0.57 -12.28,-0.57 -4.98,0 -12.64,0.379 -22.97,1.14 -2.46,0.192 -4.22,0.282 -5.29,0.282 -2.02,0 -3.03,-0.934 -3.03,-2.793 0,-1.668 1.2,-2.719 3.6,-3.168 5.93,-1.141 10.73,-3.5 14.39,-7.09 3.66,-3.59 11.38,-13.609 23.16,-30.0508 4.16,-5.8594 7.78,-10.8086 10.87,-14.8399 4.72,-6.1719 7.09,-9.9219 7.09,-11.2422 0,-1.3281 -2.33,-4.5078 -7,-9.5468 -3.08,-3.2813 -8.25,-9.2618 -15.49,-17.961 -8.32,-10.0117 -14.91,-17.039 -19.77,-21.0703 -4.86,-4.0312 -9.75,-6.55078 -14.67,-7.55859 -1.7,-0.39063 -2.52,-1.23047 -2.46,-2.51172 0.06,-0.83985 0.35,-1.39063 0.85,-1.64844 l 2.56,-0.48047 4.27,0.1875 8.44,0.28125 c 3.6,0.19141 6.48,0.28906 8.63,0.28906 7.71,0 15.39,-0.3789 23.04,-1.13671 1.71,-0.19141 2.91,-0.28125 3.6,-0.28125 1.33,0 1.99,0.80078 1.99,2.41015 0,1.60938 -1.04,2.48047 -3.12,2.60938 -9.84,0.75 -14.77,3.71094 -14.77,8.87894 0,4.789 7.2,15.3398 21.59,31.6601 2.26,2.6406 4.21,4.8789 5.84,6.711 1.01,1.1289 1.76,1.6992 2.27,1.6992 0.44,0 1.07,-0.5703 1.9,-1.6992 l 4.75,-6.1407 c 8.05,-10.3984 13.63,-18.0195 16.74,-22.8711 3.1,-4.8593 4.65,-8.4179 4.65,-10.6796 0,-4.3477 -2.55,-6.70708 -7.66,-7.08989 -2.34,-0.1875 -3.5,-1.1875 -3.5,-2.98828 0,-1.53907 1.07,-2.3125 3.21,-2.3125 1.57,0 4.13,0.09375 7.65,0.28125 l 10.4,0.66015 c 2.65,0.19141 5.42,0.28906 8.32,0.28906 4.22,0 9.2,-0.21875 14.93,-0.66015 l 11.91,-0.94922 c 1.76,-0.12891 3.15,-0.1875 4.16,-0.1875 2.27,0 3.4,0.86719 3.4,2.59766 0,1.92187 -1.1,2.98046 -3.31,3.17187 -6.94,0.50781 -12.72,3.02735 -17.32,7.55855 -7.32,7.25 -16.17,18.3086 -26.58,33.1797 -6.56,9.4493 -10.68,15.2422 -12.39,17.3789 -3.65,4.6719 -5.48,7.5625 -5.48,8.7032 0,1.0703 1.42,3.1484 4.25,6.2382 0.7,0.75 4.83,5.629 12.39,14.6407 10.22,12.2305 19.36,21.5195 27.43,27.8905 2.77,2.199 6.97,3.738 12.59,4.629 2.08,0.32 3.12,1.309 3.12,2.98 0,1.668 -0.88,2.508 -2.64,2.508 -1.58,0 -3.56,-0.097 -5.96,-0.289 l -11.62,-0.847 c -3.02,-0.192 -5.89,-0.282 -8.6,-0.282 -5.16,0 -10.74,0.219 -16.72,0.66 -1.57,0.122 -2.71,0.192 -3.4,0.192 -2.02,0 -3.12,-0.871 -3.31,-2.602 v 0 z m -141.82,-14.718 c 5.99,-5.563 10.79,-13.051 14.38,-22.4809 3.6,-9.4414 5.4,-19.1094 5.4,-29.0195 0,-17.1602 -3.88,-30.8711 -11.64,-41.1211 -7.77,-10.2617 -18.12,-15.39066 -31.05,-15.39066 -14.33,0 -25.97,6.19926 -34.93,18.60156 -8.96,12.3984 -13.44,28.5078 -13.44,48.3281 0,16.7813 3.56,29.8715 10.7,39.2815 7.13,9.398 17.03,14.097 29.72,14.097 11.86,0 22.15,-4.097 30.86,-12.296 v 0 z m -54.1,13.668 c -9.43,-3.821 -17.21,-9.11 -23.33,-15.872 -5.3,-5.738 -9.5,-12.859 -12.59,-21.3589 -3.09,-8.4883 -4.64,-17.0274 -4.64,-25.6172 0,-20.0235 6.12,-36.0117 18.36,-47.9805 C 1164.31,5.98047 1180.65,0 1201.1,0 c 21.39,0 38.17,6.87891 50.35,20.6406 12.5,14.0899 18.74,31.2578 18.74,51.5313 0,18.6289 -6.05,33.6801 -18.17,45.1371 -12.12,11.461 -28.02,17.191 -47.71,17.191 -10.6,0 -20.62,-1.91 -30.05,-5.73 z m -155.64,-12.821 -6.51,7.66 c -3.66,4.36 -6.05,6.961 -7.18,7.813 -1.14,0.859 -2.68,1.277 -4.63,1.277 -1.386,0 -3.124,-0.09 -5.214,-0.277 -5.633,-0.57 -10.922,-0.852 -15.852,-0.852 l -3.992,-0.101 -6.547,0.293 c -2.152,0 -3.222,-0.91 -3.222,-2.711 0,-1.473 0.972,-2.281 2.929,-2.41 14.321,-1 21.493,-11.2 21.493,-30.5902 V 55.0703 l -0.672,-22.4805 c 0,-7.7382 -1.047,-13.6796 -3.168,-17.8007 -2.11,-4.1172 -5.469,-6.84769 -10.082,-8.16801 -1.828,-0.51171 -2.739,-1.41015 -2.739,-2.69921 0,-1.54297 0.852,-2.32032 2.559,-2.32032 1.012,0 2.621,0.17969 4.832,0.54688 5,0.90234 10.688,1.35156 17.078,1.35156 6.437,0 12.317,-0.44141 17.637,-1.32812 1.7,-0.25 2.94,-0.38282 3.69,-0.38282 1.96,0 2.94,0.97266 2.94,2.89063 0,1.42187 -0.94,2.21875 -2.84,2.41015 -10.22,0.94922 -16.37,4.94926 -18.45,12.01176 -1.957,6.6172 -2.938,19.7265 -2.938,39.3398 v 36.6875 l 0.102,2.7422 c 0,2.8399 0.75,4.2579 2.266,4.2579 0.56,0 1.6,-0.82 3.12,-2.4571 l 86.1,-95.70315 c 1.2,-1.32031 2.37,-2.01953 3.5,-2.07812 1.28,-0.0625 1.92,0.78906 1.92,2.55078 l -0.39,11.82809 -0.09,7.1797 0.09,10.5 0.39,8.1406 1.34,59.1092 v 4.641 c 0,12.922 4.07,20.14 12.21,21.66 2.02,0.32 3.03,1.281 3.03,2.879 0,1.801 -1.01,2.699 -3.04,2.699 -0.57,0 -1.48,-0.058 -2.75,-0.187 -9.48,-1.2 -16.4,-1.801 -20.77,-1.801 -2.15,0 -4.87,0.191 -8.15,0.57 -5.06,0.629 -8.73,0.949 -11,0.949 -1.84,0 -2.75,-0.839 -2.75,-2.507 0,-1.364 1.04,-2.102 3.12,-2.231 8.77,-0.633 14.65,-3.562 17.65,-8.793 3,-5.226 4.5,-15.25 4.5,-30.0663 0,-12.6015 -0.29,-25.8711 -0.85,-39.8008 -0.13,-3.8515 -0.85,-5.7695 -2.17,-5.7695 -1.45,0 -4.32,2.3984 -8.6,7.1992 l -3.21,3.5899 -50.06,56.2305 c -0.5,0.629 -2.05,2.461 -4.63,5.488 v 0 z m -170.155,-8.328 c 0,7.32 0.66,12.07 1.988,14.238 1.332,2.18 4.699,3.993 10.133,5.45 1.566,0.382 2.359,1.152 2.359,2.312 0,1.738 -0.91,2.578 -2.742,2.508 -1.14,-0.059 -2.527,-0.188 -4.168,-0.367 -5.93,-0.641 -12.582,-0.953 -19.972,-0.953 -8.637,0 -16.25,0.339 -22.809,1.043 -1.578,0.187 -3.16,0.277 -4.731,0.277 -1.769,0 -2.648,-0.731 -2.648,-2.207 0,-1.473 0.168,-2.41 0.52,-2.793 0.339,-0.379 1.281,-0.668 2.789,-0.859 4.921,-0.508 8.691,-1.641 11.308,-3.411 2.621,-1.757 4.403,-4.339 5.352,-7.75 l 0.851,-5.379 -0.09,-3.691 V 30.1484 c 0,-8 -0.871,-13.6484 -2.613,-16.957 -1.726,-3.31249 -4.867,-5.31249 -9.406,-5.99999 -1.652,-0.33203 -2.473,-1.10157 -2.473,-2.33203 0,-1.85938 1.242,-2.78125 3.7,-2.78125 2.46,0 5.71,0.1914 9.75,0.57031 6.3,0.63281 12.992,0.9414 20.062,0.9414 5.301,0 9.66,-0.28125 13.059,-0.85156 2.781,-0.5 4.769,-0.75781 5.968,-0.75781 2.082,0 3.121,0.96094 3.121,2.89062 0,1.66797 -1.73,2.62891 -5.199,2.89063 -5.238,0.36719 -8.922,2.71878 -11.031,7.02738 -2.117,4.3203 -3.168,11.582 -3.168,21.7812 v 4.0586 c 0,5.4805 0.199,9.0899 0.609,10.8203 0.411,1.7305 1.442,3.4219 3.079,5.0508 l 4.07,3.9805 2.84,2.7383 c 1.132,1.1406 2.082,1.7109 2.84,1.7109 1.132,0 2.589,-1.4492 4.351,-4.3594 2.031,-3.4687 7.328,-10.8984 15.899,-22.289 8.57,-11.3907 15.582,-20.3321 21.023,-26.8321 2.137,-2.64842 3.34,-4.14061 3.59,-4.4492 2.637,-3.28125 5.597,-4.92187 8.879,-4.92187 0.937,0 3.461,0.25 7.558,0.75 2.2,0.26171 4.313,0.38281 6.332,0.38281 4.278,0 9.5,-0.3125 15.68,-0.94141 1.129,-0.1289 2.039,-0.1914 2.738,-0.1914 1.879,0 2.86,0.77343 2.922,2.3125 0.07,1.59765 -0.691,2.62109 -2.269,3.07031 l -1.993,0.57812 c -9.078,2.51954 -16.121,6.30074 -21.097,11.33984 -7.09,7.1797 -18.531,21.6094 -34.34,43.2813 l -6.832,9.2695 c -2.84,3.9687 -4.27,6.7109 -4.27,8.2187 0,2.1407 2.661,5.4532 7.981,9.9219 1.769,1.5078 5.058,4.5391 9.871,9.0703 10.379,9.7694 18.367,16.6294 23.988,20.5974 5.621,3.973 10.629,6.301 15.051,7 2.777,0.453 4.16,1.383 4.16,2.793 0,1.86 -1.101,2.789 -3.312,2.789 -2.528,0 -7.02,-0.379 -13.469,-1.129 -2.969,-0.32 -5.469,-0.48 -7.488,-0.48 -2.723,0 -7.461,0.379 -14.231,1.141 -2.722,0.308 -5.371,0.468 -7.961,0.468 -2.34,0 -3.511,-0.8 -3.511,-2.41 0,-1.738 1.011,-2.601 3.031,-2.601 2.711,0 4.89,-0.571 6.531,-1.707 1.641,-1.133 2.461,-2.653 2.461,-4.543 0,-5.68 -8.703,-16.309 -26.082,-31.8988 l -13.231,-11.7383 -9.257,-8.3321 c -2.461,-1.8906 -3.973,-2.8398 -4.543,-2.8398 -1.071,0.0703 -1.598,1.2695 -1.598,3.6016 v 34.3594 l 0.09,3.41 v 0"
         style="fill:#ffffff;fill-opacity:1;fill-rule:nonzero;stroke:none"
         transform="matrix(0.13333333,0,0,-0.13333333,0,92.426667)" />
      <path
         id="path5"
         d="m 602.523,432.23 h -64.429 c 0,32.04 -31.731,57.993 -70.879,57.993 -28.602,0 -53.235,-13.868 -64.434,-33.836 V 238.93 c 0,-46.192 35.949,-83.66 80.344,-83.758 h 0.199 V 90.7305 H 206.246 v 64.4415 h 0.188 c 44.394,0.098 80.363,37.566 80.363,83.758 v 217.457 c -11.207,19.968 -35.836,33.836 -64.445,33.836 -39.137,0 -70.879,-25.953 -70.879,-57.993 H 87.0313 V 606.215 H 602.523 V 432.23 Z M 689.563,3.62109 V 693.184 H 0 V 3.62109 h 689.563 v 0"
         style="fill:#ffffff;fill-opacity:1;fill-rule:nonzero;stroke:none"
         transform="matrix(0.13333333,0,0,-0.13333333,0,92.426667)" />
    </g>
  </g>
</svg>
